<svg width="159" height="63" viewBox="0 0 159 63" fill="none" xmlns="http://www.w3.org/2000/svg">
<rect x="0.5" y="0.5" width="158" height="62" rx="11.5" fill="#1F1F1F"/>
<rect x="0.5" y="0.5" width="158" height="62" rx="11.5" stroke="#404040" stroke-dasharray="16 6"/>
<path d="M31.8047 34.6514C31.8047 34.4229 31.7695 34.2178 31.6992 34.0361C31.6348 33.8486 31.5117 33.6787 31.3301 33.5264C31.1484 33.3682 30.8936 33.2129 30.5654 33.0605C30.2373 32.9082 29.8125 32.75 29.291 32.5859C28.7109 32.3984 28.1602 32.1875 27.6387 31.9531C27.123 31.7188 26.666 31.4463 26.2676 31.1357C25.875 30.8193 25.5645 30.4531 25.3359 30.0371C25.1133 29.6211 25.002 29.1377 25.002 28.5869C25.002 28.0537 25.1191 27.5703 25.3535 27.1367C25.5879 26.6973 25.916 26.3223 26.3379 26.0117C26.7598 25.6953 27.2578 25.4521 27.832 25.2822C28.4121 25.1123 29.0479 25.0273 29.7393 25.0273C30.6826 25.0273 31.5059 25.1973 32.209 25.5371C32.9121 25.877 33.457 26.3428 33.8438 26.9346C34.2363 27.5264 34.4326 28.2031 34.4326 28.9648H31.8135C31.8135 28.5898 31.7344 28.2617 31.5762 27.9805C31.4238 27.6934 31.1895 27.4678 30.873 27.3037C30.5625 27.1396 30.1699 27.0576 29.6953 27.0576C29.2383 27.0576 28.8574 27.1279 28.5527 27.2686C28.248 27.4033 28.0195 27.5879 27.8672 27.8223C27.7148 28.0508 27.6387 28.3086 27.6387 28.5957C27.6387 28.8125 27.6914 29.0088 27.7969 29.1846C27.9082 29.3604 28.0723 29.5244 28.2891 29.6768C28.5059 29.8291 28.7725 29.9727 29.0889 30.1074C29.4053 30.2422 29.7715 30.374 30.1875 30.5029C30.8848 30.7139 31.4971 30.9512 32.0244 31.2148C32.5576 31.4785 33.0029 31.7744 33.3604 32.1025C33.7178 32.4307 33.9873 32.8027 34.1689 33.2188C34.3506 33.6348 34.4414 34.1064 34.4414 34.6338C34.4414 35.1904 34.333 35.6885 34.1162 36.1279C33.8994 36.5674 33.5859 36.9395 33.1758 37.2441C32.7656 37.5488 32.2764 37.7803 31.708 37.9385C31.1396 38.0967 30.5039 38.1758 29.8008 38.1758C29.168 38.1758 28.5439 38.0938 27.9287 37.9297C27.3135 37.7598 26.7539 37.5049 26.25 37.165C25.752 36.8252 25.3535 36.3916 25.0547 35.8643C24.7559 35.3369 24.6064 34.7129 24.6064 33.9922H27.252C27.252 34.3906 27.3135 34.7275 27.4365 35.0029C27.5596 35.2783 27.7324 35.501 27.9551 35.6709C28.1836 35.8408 28.4531 35.9639 28.7637 36.04C29.0801 36.1162 29.4258 36.1543 29.8008 36.1543C30.2578 36.1543 30.6328 36.0898 30.9258 35.9609C31.2246 35.832 31.4443 35.6533 31.585 35.4248C31.7314 35.1963 31.8047 34.9385 31.8047 34.6514ZM38.5459 24.5V38H36.0146V24.5H38.5459ZM38.1855 32.9111H37.4912C37.4971 32.249 37.585 31.6396 37.7549 31.083C37.9248 30.5205 38.168 30.0342 38.4844 29.624C38.8008 29.208 39.1787 28.8857 39.6182 28.6572C40.0635 28.4287 40.5557 28.3145 41.0947 28.3145C41.5635 28.3145 41.9883 28.3818 42.3691 28.5166C42.7559 28.6455 43.0869 28.8564 43.3623 29.1494C43.6436 29.4365 43.8604 29.8145 44.0127 30.2832C44.165 30.752 44.2412 31.3203 44.2412 31.9883V38H41.6924V31.9707C41.6924 31.5488 41.6309 31.2178 41.5078 30.9775C41.3906 30.7314 41.2178 30.5586 40.9893 30.459C40.7666 30.3535 40.4912 30.3008 40.1631 30.3008C39.7998 30.3008 39.4893 30.3682 39.2314 30.5029C38.9795 30.6377 38.7773 30.8252 38.625 31.0654C38.4727 31.2998 38.3613 31.5752 38.291 31.8916C38.2207 32.208 38.1855 32.5479 38.1855 32.9111ZM45.7617 33.3418V33.1572C45.7617 32.46 45.8613 31.8184 46.0605 31.2324C46.2598 30.6406 46.5498 30.1279 46.9307 29.6943C47.3115 29.2607 47.7803 28.9238 48.3369 28.6836C48.8936 28.4375 49.5322 28.3145 50.2529 28.3145C50.9736 28.3145 51.6152 28.4375 52.1777 28.6836C52.7402 28.9238 53.2119 29.2607 53.5928 29.6943C53.9795 30.1279 54.2725 30.6406 54.4717 31.2324C54.6709 31.8184 54.7705 32.46 54.7705 33.1572V33.3418C54.7705 34.0332 54.6709 34.6748 54.4717 35.2666C54.2725 35.8525 53.9795 36.3652 53.5928 36.8047C53.2119 37.2383 52.7432 37.5752 52.1865 37.8154C51.6299 38.0557 50.9912 38.1758 50.2705 38.1758C49.5498 38.1758 48.9082 38.0557 48.3457 37.8154C47.7891 37.5752 47.3174 37.2383 46.9307 36.8047C46.5498 36.3652 46.2598 35.8525 46.0605 35.2666C45.8613 34.6748 45.7617 34.0332 45.7617 33.3418ZM48.293 33.1572V33.3418C48.293 33.7402 48.3281 34.1123 48.3984 34.458C48.4688 34.8037 48.5801 35.1084 48.7324 35.3721C48.8906 35.6299 49.0957 35.832 49.3477 35.9785C49.5996 36.125 49.9072 36.1982 50.2705 36.1982C50.6221 36.1982 50.9238 36.125 51.1758 35.9785C51.4277 35.832 51.6299 35.6299 51.7822 35.3721C51.9346 35.1084 52.0459 34.8037 52.1162 34.458C52.1924 34.1123 52.2305 33.7402 52.2305 33.3418V33.1572C52.2305 32.7705 52.1924 32.4072 52.1162 32.0674C52.0459 31.7217 51.9316 31.417 51.7734 31.1533C51.6211 30.8838 51.4189 30.6729 51.167 30.5205C50.915 30.3682 50.6104 30.292 50.2529 30.292C49.8955 30.292 49.5908 30.3682 49.3389 30.5205C49.0928 30.6729 48.8906 30.8838 48.7324 31.1533C48.5801 31.417 48.4688 31.7217 48.3984 32.0674C48.3281 32.4072 48.293 32.7705 48.293 33.1572ZM58.8574 30.3184V41.6562H56.3262V28.4902H58.6729L58.8574 30.3184ZM64.8779 33.1396V33.3242C64.8779 34.0156 64.7959 34.6572 64.6318 35.249C64.4736 35.8408 64.2393 36.3564 63.9287 36.7959C63.6182 37.2295 63.2314 37.5693 62.7686 37.8154C62.3115 38.0557 61.7842 38.1758 61.1865 38.1758C60.6064 38.1758 60.1025 38.0586 59.6748 37.8242C59.2471 37.5898 58.8867 37.2617 58.5938 36.8398C58.3066 36.4121 58.0752 35.917 57.8994 35.3545C57.7236 34.792 57.5889 34.1885 57.4951 33.5439V33.0605C57.5889 32.3691 57.7236 31.7363 57.8994 31.1621C58.0752 30.582 58.3066 30.0811 58.5938 29.6592C58.8867 29.2314 59.2441 28.9004 59.666 28.666C60.0938 28.4316 60.5947 28.3145 61.1689 28.3145C61.7725 28.3145 62.3027 28.4287 62.7598 28.6572C63.2227 28.8857 63.6094 29.2139 63.9199 29.6416C64.2363 30.0693 64.4736 30.5791 64.6318 31.1709C64.7959 31.7627 64.8779 32.4189 64.8779 33.1396ZM62.3379 33.3242V33.1396C62.3379 32.7354 62.3027 32.3633 62.2324 32.0234C62.168 31.6777 62.0625 31.376 61.916 31.1182C61.7754 30.8604 61.5879 30.6611 61.3535 30.5205C61.125 30.374 60.8467 30.3008 60.5186 30.3008C60.1729 30.3008 59.877 30.3564 59.6309 30.4678C59.3906 30.5791 59.1943 30.7402 59.042 30.9512C58.8896 31.1621 58.7754 31.4141 58.6992 31.707C58.623 32 58.5762 32.3311 58.5586 32.7002V33.9219C58.5879 34.3555 58.6699 34.7451 58.8047 35.0908C58.9395 35.4307 59.1475 35.7002 59.4287 35.8994C59.71 36.0986 60.0791 36.1982 60.5361 36.1982C60.8701 36.1982 61.1514 36.125 61.3799 35.9785C61.6084 35.8262 61.793 35.6182 61.9336 35.3545C62.0801 35.0908 62.1826 34.7861 62.2412 34.4404C62.3057 34.0947 62.3379 33.7227 62.3379 33.3242ZM81.5068 25.2031V38H78.8701L73.7285 29.4219V38H71.0918V25.2031H73.7285L78.8789 33.79V25.2031H81.5068ZM83.2383 33.3418V33.1572C83.2383 32.46 83.3379 31.8184 83.5371 31.2324C83.7363 30.6406 84.0264 30.1279 84.4072 29.6943C84.7881 29.2607 85.2568 28.9238 85.8135 28.6836C86.3701 28.4375 87.0088 28.3145 87.7295 28.3145C88.4502 28.3145 89.0918 28.4375 89.6543 28.6836C90.2168 28.9238 90.6885 29.2607 91.0693 29.6943C91.4561 30.1279 91.749 30.6406 91.9482 31.2324C92.1475 31.8184 92.2471 32.46 92.2471 33.1572V33.3418C92.2471 34.0332 92.1475 34.6748 91.9482 35.2666C91.749 35.8525 91.4561 36.3652 91.0693 36.8047C90.6885 37.2383 90.2197 37.5752 89.6631 37.8154C89.1064 38.0557 88.4678 38.1758 87.7471 38.1758C87.0264 38.1758 86.3848 38.0557 85.8223 37.8154C85.2656 37.5752 84.7939 37.2383 84.4072 36.8047C84.0264 36.3652 83.7363 35.8525 83.5371 35.2666C83.3379 34.6748 83.2383 34.0332 83.2383 33.3418ZM85.7695 33.1572V33.3418C85.7695 33.7402 85.8047 34.1123 85.875 34.458C85.9453 34.8037 86.0566 35.1084 86.209 35.3721C86.3672 35.6299 86.5723 35.832 86.8242 35.9785C87.0762 36.125 87.3838 36.1982 87.7471 36.1982C88.0986 36.1982 88.4004 36.125 88.6523 35.9785C88.9043 35.832 89.1064 35.6299 89.2588 35.3721C89.4111 35.1084 89.5225 34.8037 89.5928 34.458C89.6689 34.1123 89.707 33.7402 89.707 33.3418V33.1572C89.707 32.7705 89.6689 32.4072 89.5928 32.0674C89.5225 31.7217 89.4082 31.417 89.25 31.1533C89.0977 30.8838 88.8955 30.6729 88.6436 30.5205C88.3916 30.3682 88.0869 30.292 87.7295 30.292C87.3721 30.292 87.0674 30.3682 86.8154 30.5205C86.5693 30.6729 86.3672 30.8838 86.209 31.1533C86.0566 31.417 85.9453 31.7217 85.875 32.0674C85.8047 32.4072 85.7695 32.7705 85.7695 33.1572ZM96.5186 35.5391L98.4961 28.4902H100.104L99.5859 31.2588L97.6084 38H96.2637L96.5186 35.5391ZM95.5166 28.4902L96.9316 35.5303L97.0635 38H95.4814L93.0732 28.4902H95.5166ZM101.915 35.416L103.295 28.4902H105.747L103.339 38H101.766L101.915 35.416ZM100.324 28.4902L102.293 35.4863L102.565 38H101.212L99.2344 31.2676L98.7334 28.4902H100.324Z" fill="white"/>
<path fill-rule="evenodd" clip-rule="evenodd" d="M119.25 21.75L130.5 21.75C130.699 21.75 130.89 21.829 131.03 21.9697C131.171 22.1103 131.25 22.3011 131.25 22.5V33.75C131.25 34.1642 130.914 34.5 130.5 34.5C130.086 34.5 129.75 34.1642 129.75 33.75V24.3107L116.03 38.0303C115.737 38.3232 115.263 38.3232 114.97 38.0303C114.677 37.7374 114.677 37.2626 114.97 36.9697L128.689 23.25L119.25 23.25C118.836 23.25 118.5 22.9142 118.5 22.5C118.5 22.0858 118.836 21.75 119.25 21.75Z" fill="white"/>
<path d="M17 0.5L12.5 0.5C5.87258 0.5 0.5 5.87258 0.5 12.5V16.9988" stroke="#AE9B84"/>
<path d="M142 0.5L146.5 0.5C153.127 0.5 158.5 5.87258 158.5 12.5V16.9988" stroke="#AE9B84"/>
<path d="M158.5 46L158.5 50.5C158.5 57.1274 153.127 62.5 146.5 62.5L142.001 62.5" stroke="#AE9B84"/>
<path d="M0.5 46L0.5 50.5C0.5 57.1274 5.87258 62.5 12.5 62.5L16.9988 62.5" stroke="#AE9B84"/>
</svg>
